name C:\Users\u0101727\Documents\MyRepositories\upper-imu-dc\OpenSim\subject0\MA\ResultsMA\grid_4nodes_9dim\angles_14.mot
datacolumns 10
datarows 18
range 1425.01000000 1425.18000000
endheader 
time	clav_prot	clav_elev	scapula_abduction	scapula_elevation	scapula_upward_rot	scapula_winging	plane_elv	shoulder_elv	axial_rot	
       1425.01000000	        -50.00000000	          0.00000000	         -3.33333333	          3.33333333	          0.00000000	         10.00000000	         30.00000000	        -10.00000000	         30.00000000	
       1425.02000000	        -38.33333333	          0.00000000	         -3.33333333	          3.33333333	          0.00000000	         10.00000000	         30.00000000	        -10.00000000	         30.00000000	
       1425.03000000	        -26.66666667	          0.00000000	         -3.33333333	          3.33333333	          0.00000000	         10.00000000	         30.00000000	        -10.00000000	         30.00000000	
       1425.04000000	        -15.00000000	          0.00000000	         -3.33333333	          3.33333333	          0.00000000	         10.00000000	         30.00000000	        -10.00000000	         30.00000000	
       1425.05000000	        -50.00000000	         10.00000000	         -3.33333333	          3.33333333	          0.00000000	         10.00000000	         30.00000000	        -10.00000000	         30.00000000	
       1425.06000000	        -38.33333333	         10.00000000	         -3.33333333	          3.33333333	          0.00000000	         10.00000000	         30.00000000	        -10.00000000	         30.00000000	
       1425.07000000	        -26.66666667	         10.00000000	         -3.33333333	          3.33333333	          0.00000000	         10.00000000	         30.00000000	        -10.00000000	         30.00000000	
       1425.08000000	        -15.00000000	         10.00000000	         -3.33333333	          3.33333333	          0.00000000	         10.00000000	         30.00000000	        -10.00000000	         30.00000000	
       1425.09000000	        -50.00000000	         20.00000000	         -3.33333333	          3.33333333	          0.00000000	         10.00000000	         30.00000000	        -10.00000000	         30.00000000	
       1425.10000000	        -38.33333333	         20.00000000	         -3.33333333	          3.33333333	          0.00000000	         10.00000000	         30.00000000	        -10.00000000	         30.00000000	
       1425.11000000	        -26.66666667	         20.00000000	         -3.33333333	          3.33333333	          0.00000000	         10.00000000	         30.00000000	        -10.00000000	         30.00000000	
       1425.12000000	        -15.00000000	         20.00000000	         -3.33333333	          3.33333333	          0.00000000	         10.00000000	         30.00000000	        -10.00000000	         30.00000000	
       1425.13000000	        -50.00000000	        -10.00000000	         15.00000000	          3.33333333	          0.00000000	         10.00000000	         30.00000000	        -10.00000000	         30.00000000	
       1425.14000000	        -38.33333333	        -10.00000000	         15.00000000	          3.33333333	          0.00000000	         10.00000000	         30.00000000	        -10.00000000	         30.00000000	
       1425.15000000	        -26.66666667	        -10.00000000	         15.00000000	          3.33333333	          0.00000000	         10.00000000	         30.00000000	        -10.00000000	         30.00000000	
       1425.16000000	        -15.00000000	        -10.00000000	         15.00000000	          3.33333333	          0.00000000	         10.00000000	         30.00000000	        -10.00000000	         30.00000000	
       1425.17000000	        -50.00000000	          0.00000000	         15.00000000	          3.33333333	          0.00000000	         10.00000000	         30.00000000	        -10.00000000	         30.00000000	
       1425.18000000	        -38.33333333	          0.00000000	         15.00000000	          3.33333333	          0.00000000	         10.00000000	         30.00000000	        -10.00000000	         30.00000000	
